<svg width="21" height="22" viewBox="0 0 21 22" fill="none" xmlns="http://www.w3.org/2000/svg">
<path d="M0 0H21V2.19124H18.9V22L17.1937 20.5757L15.2607 18.9629L13.5597 20.5406L12.8625 21.1871L12.1653 20.5406L10.5 18.9947L8.8347 20.5395L8.1375 21.186L7.4403 20.5395L5.7393 18.9619L3.80625 20.5757L2.1 22V2.19124H0V0ZM4.2 2.19124V17.4422L5.11875 16.6753L5.8107 16.0968L6.4722 16.7104L8.1375 18.2552L9.8028 16.7104L10.5 16.0639L11.1972 16.7104L12.8625 18.2552L14.5278 16.7104L15.1893 16.0968L15.8812 16.6742L16.8 17.4411V2.19124H4.2ZM6.3 5.47809H14.7V7.66932H6.3V5.47809ZM8.4 9.86056H7.35V12.0518H13.65V9.86056H12.6H8.4Z" fill="white"/>
</svg>
