<svg width="25" height="24" viewBox="0 0 25 24" fill="none" xmlns="http://www.w3.org/2000/svg">
<path d="M4.5 12C4.5 12.2652 4.60536 12.5196 4.79289 12.7071C4.98043 12.8946 5.23478 13 5.5 13C5.76522 13 6.01957 12.8946 6.20711 12.7071C6.39464 12.5196 6.5 12.2652 6.5 12C6.5 11.7348 6.39464 11.4804 6.20711 11.2929C6.01957 11.1054 5.76522 11 5.5 11C5.23478 11 4.98043 11.1054 4.79289 11.2929C4.60536 11.4804 4.5 11.7348 4.5 12ZM11.5 12C11.5 12.2652 11.6054 12.5196 11.7929 12.7071C11.9804 12.8946 12.2348 13 12.5 13C12.7652 13 13.0196 12.8946 13.2071 12.7071C13.3946 12.5196 13.5 12.2652 13.5 12C13.5 11.7348 13.3946 11.4804 13.2071 11.2929C13.0196 11.1054 12.7652 11 12.5 11C12.2348 11 11.9804 11.1054 11.7929 11.2929C11.6054 11.4804 11.5 11.7348 11.5 12ZM18.5 12C18.5 12.2652 18.6054 12.5196 18.7929 12.7071C18.9804 12.8946 19.2348 13 19.5 13C19.7652 13 20.0196 12.8946 20.2071 12.7071C20.3946 12.5196 20.5 12.2652 20.5 12C20.5 11.7348 20.3946 11.4804 20.2071 11.2929C20.0196 11.1054 19.7652 11 19.5 11C19.2348 11 18.9804 11.1054 18.7929 11.2929C18.6054 11.4804 18.5 11.7348 18.5 12Z" stroke="white" stroke-width="2" stroke-linecap="round" stroke-linejoin="round"/>
</svg>
