<svg width="56" height="30" viewBox="0 0 56 30" fill="none" xmlns="http://www.w3.org/2000/svg">
<path d="M12.0364 25.9457C2.24127 23.9534 0.622574 15.9845 0.622573 11.0039C0.415049 11.419 0 12.9961 0 15.9845C0 19.7199 0.207525 23.2479 5.81069 26.9833C11.271 30.6235 17.2728 29.7913 21.1675 28.0209C25.7331 25.9457 30.0911 27.9518 32.1663 28.6435C30.5061 26.7758 26.7707 23.6629 20.7525 25.3231C18.0318 26.0736 13.9042 26.2916 12.0364 25.9457Z" fill="#02264A"/>
<path d="M15.5629 16.6066C7.09586 17.7687 2.28129 13.3554 0.621094 11.0034L1.65872 15.1539C6.01673 22.2097 13.4828 22.4527 16.393 22.8323C21.166 23.4549 27.2534 19.0277 31.1272 16.8141C38.3906 10.1733 41.8808 6.56043 45.4464 4.77767C48.3518 3.32503 50.8421 2.4949 55.2001 3.11747C52.7098 1.04223 47.7292 -1.44806 40.0508 1.04221C31.3347 3.86899 26.1466 15.1539 15.5629 16.6066Z" fill="#FCC410"/>
<path d="M17.0177 22.6253C5.39633 22.4593 1.45336 14.8085 0.623262 11.0039C0.20821 15.9845 2.07593 19.5078 3.5286 21.3755C10.3769 29.6765 23.0359 24.7005 24.4886 24.2855C25.9413 23.8704 29.817 21.31 34.6573 18.8898C38.3928 17.0221 43.5809 17.4372 45.2411 18.0597C43.7884 16.192 39.134 14.7595 34.6573 15.777C30.0918 16.8146 28.6391 18.0597 24.4886 20.55C21.1682 22.5423 18.1245 22.6253 17.0177 22.6253Z" fill="#063A69"/>
</svg>
