<svg width="32" height="32" viewBox="0 0 32 32" fill="none" xmlns="http://www.w3.org/2000/svg">
<g clip-path="url(#clip0_2185_6326)">
<path d="M16.0016 2.99653C13.2148 2.99718 10.5021 3.89333 8.26329 5.55281C6.02452 7.2123 4.37827 9.54728 3.5673 12.2134C2.75633 14.8796 2.82358 17.7357 3.75912 20.3608C4.69466 22.9858 6.44897 25.2407 8.76336 26.793C11.0777 28.3453 13.8297 29.1128 16.6134 28.9823C19.3971 28.8518 22.0652 27.8302 24.2242 26.0682C26.3832 24.3063 27.9189 21.8971 28.6048 19.1961C29.2907 16.4951 29.0904 13.6451 28.0336 11.0665C27.8824 10.6984 27.8837 10.2853 28.0371 9.91811C28.1905 9.55092 28.4835 9.2597 28.8516 9.10853C29.2197 8.95735 29.6328 8.95861 30 9.11201C30.3672 9.26542 30.6584 9.55841 30.8096 9.92653C32.2109 13.347 32.3847 17.1471 31.3014 20.6812C30.2182 24.2153 27.9447 27.2652 24.8673 29.3129C21.7899 31.3605 18.0985 32.2795 14.4202 31.9136C10.742 31.5478 7.30395 29.9196 4.69022 27.3059C2.0765 24.6922 0.448368 21.2541 0.0825009 17.5759C-0.283366 13.8977 0.635598 10.2062 2.68324 7.12883C4.73088 4.05145 7.78087 1.77796 11.3149 0.694695C14.849 -0.388569 18.6491 -0.214782 22.0696 1.18653C22.252 1.26125 22.4179 1.37117 22.5578 1.51C22.6978 1.64884 22.809 1.81388 22.8851 1.9957C22.9613 2.17752 23.0008 2.37255 23.0016 2.56967C23.0024 2.76678 22.9643 2.96212 22.8896 3.14453C22.8149 3.32693 22.705 3.49283 22.5661 3.63276C22.4273 3.77269 22.2622 3.8839 22.0804 3.96004C21.8986 4.03619 21.7036 4.07577 21.5065 4.07654C21.3093 4.07731 21.114 4.03925 20.9316 3.96453C19.3672 3.32302 17.6924 2.99416 16.0016 2.99653ZM28.5616 3.43653C28.8425 3.71778 29.0003 4.09902 29.0003 4.49653C29.0003 4.89403 28.8425 5.27528 28.5616 5.55653L20.4356 13.6845C20.9882 14.7437 21.1433 15.9657 20.8729 17.1294C20.6024 18.293 19.9242 19.3214 18.9611 20.0283C17.998 20.7351 16.8137 21.0738 15.6225 20.9829C14.4312 20.8921 13.3119 20.3777 12.4672 19.533C11.6224 18.6882 11.108 17.5689 11.0172 16.3777C10.9263 15.1865 11.265 14.0021 11.9719 13.039C12.6787 12.0759 13.7071 11.3977 14.8707 11.1272C16.0344 10.8568 17.2564 11.0119 18.3156 11.5645L26.4416 3.43653C26.7228 3.15563 27.1041 2.99785 27.5016 2.99785C27.8991 2.99785 28.2803 3.15563 28.5616 3.43653ZM14.0016 15.9965C14.0016 16.527 14.2123 17.0357 14.5874 17.4107C14.9625 17.7858 15.4712 17.9965 16.0016 17.9965C16.532 17.9965 17.0407 17.7858 17.4158 17.4107C17.7909 17.0357 18.0016 16.527 18.0016 15.9965C18.0016 15.4661 17.7909 14.9574 17.4158 14.5823C17.0407 14.2072 16.532 13.9965 16.0016 13.9965C15.4712 13.9965 14.9625 14.2072 14.5874 14.5823C14.2123 14.9574 14.0016 15.4661 14.0016 15.9965Z" fill="white"/>
</g>
<defs>
<clipPath id="clip0_2185_6326">
<rect width="32" height="32" fill="white"/>
</clipPath>
</defs>
</svg>
