<svg width="295" height="146" viewBox="0 0 295 146" fill="none" xmlns="http://www.w3.org/2000/svg">
<path d="M295 144.568C295 106.226 279.46 69.4548 251.798 42.343C224.137 15.2312 186.619 2.92885e-06 147.5 3.41176e-08C108.381 -2.86061e-06 70.8634 15.2312 43.2018 42.343C15.5401 69.4548 6.107e-06 106.226 2.00127e-07 144.568H36.875C36.875 115.812 48.5301 88.2331 69.2763 67.8993C90.0225 47.5654 118.16 36.142 147.5 36.142C176.84 36.142 204.977 47.5655 225.724 67.8993C246.47 88.2331 258.125 115.812 258.125 144.568H295Z" fill="#1D4ED8"/>
<path d="M76.0631 18.0866C52.951 30.6266 33.6991 49.0202 20.319 71.3454C6.93892 93.6706 -0.0782635 119.108 0.000658446 145L36.8755 144.892C36.8163 125.473 42.0792 106.395 52.1143 89.6511C62.1493 72.9071 76.5882 59.112 93.9223 49.707L76.0631 18.0866Z" fill="#BAE6FD"/>
<path d="M221.25 19.3684C198.883 6.71158 173.517 0.0327835 147.69 0.000120384C121.863 -0.0325428 96.4801 6.58207 74.0799 19.1823L92.4349 50.5288C109.235 41.0786 128.272 36.1176 147.643 36.1421C167.013 36.1666 186.037 41.1757 202.812 50.6684L221.25 19.3684Z" fill="#60A5FA"/>
<path d="M67 139.259L146.826 134.042L146.826 144.477L67 139.259Z" fill="#272525"/>
<path d="M145.068 133.589C147.981 133.589 150.342 136.128 150.342 139.259C150.342 142.391 147.981 144.93 145.068 144.93C142.154 144.93 139.793 142.391 139.793 139.259C139.793 136.128 142.154 133.589 145.068 133.589Z" fill="#272525"/>
</svg>
