<svg width="25" height="32" viewBox="0 0 25 32" fill="none" xmlns="http://www.w3.org/2000/svg">
<path d="M6.33366 31.7122C4.63783 31.7122 3.18609 31.1084 1.97845 29.9008C0.770812 28.6931 0.166992 27.2414 0.166992 25.5456V10.1289C0.166992 8.43307 0.770812 6.98134 1.97845 5.7737C3.18609 4.56606 4.63783 3.96224 6.33366 3.96224H7.87533V0.878906H10.9587V3.96224H14.042V0.878906H17.1253V3.96224H18.667C20.3628 3.96224 21.8146 4.56606 23.0222 5.7737C24.2298 6.98134 24.8337 8.43307 24.8337 10.1289V25.5456C24.8337 27.2414 24.2298 28.6931 23.0222 29.9008C21.8146 31.1084 20.3628 31.7122 18.667 31.7122H6.33366ZM6.33366 28.6289H18.667C19.5149 28.6289 20.241 28.3273 20.8454 27.7239C21.4497 27.1206 21.7514 26.3945 21.7503 25.5456V10.1289C21.7503 9.28099 21.4487 8.55538 20.8454 7.95207C20.2421 7.34877 19.5159 7.0466 18.667 7.04557H6.33366C5.48574 7.04557 4.76013 7.34774 4.15683 7.95207C3.55352 8.55641 3.25135 9.28202 3.25033 10.1289V25.5456C3.25033 26.3935 3.55249 27.1196 4.15683 27.7239C4.76116 28.3283 5.48677 28.6299 6.33366 28.6289ZM6.33366 13.2122H18.667V10.1289H6.33366V13.2122ZM12.5003 25.5456C13.5795 25.5456 14.4916 25.1797 15.2368 24.4479C15.9819 23.7161 16.3545 22.823 16.3545 21.7685C16.3545 20.9206 16.1104 20.195 15.6222 19.5917C15.134 18.9884 14.0934 17.7612 12.5003 15.9102C10.8816 17.7602 9.83478 18.9935 9.35995 19.6102C8.88512 20.2268 8.64719 20.9463 8.64616 21.7685C8.64616 22.822 9.01873 23.7151 9.76387 24.4479C10.509 25.1807 11.4212 25.5466 12.5003 25.5456Z" fill="white"/>
</svg>
