<svg width="31" height="31" viewBox="0 0 31 31" fill="none" xmlns="http://www.w3.org/2000/svg">
<path d="M29.375 13.9583V9.33333C29.375 8.51558 29.0501 7.73132 28.4719 7.15309C27.8937 6.57485 27.1094 6.25 26.2917 6.25H17.0417M17.0417 6.25L21.6667 10.875M17.0417 6.25L21.6667 1.625M1.625 17.0417V21.6667C1.625 22.4844 1.94985 23.2687 2.52809 23.8469C3.10632 24.4251 3.89058 24.75 4.70833 24.75H13.9583M13.9583 24.75L9.33333 20.125M13.9583 24.75L9.33333 29.375M1.625 3.16667C1.625 2.75779 1.78743 2.36566 2.07654 2.07654C2.36566 1.78743 2.75779 1.625 3.16667 1.625H9.33333C9.74221 1.625 10.1343 1.78743 10.4235 2.07654C10.7126 2.36566 10.875 2.75779 10.875 3.16667V9.33333C10.875 9.74221 10.7126 10.1343 10.4235 10.4235C10.1343 10.7126 9.74221 10.875 9.33333 10.875H3.16667C2.75779 10.875 2.36566 10.7126 2.07654 10.4235C1.78743 10.1343 1.625 9.74221 1.625 9.33333V3.16667ZM20.125 21.6667C20.125 21.2578 20.2874 20.8657 20.5765 20.5765C20.8657 20.2874 21.2578 20.125 21.6667 20.125H27.8333C28.2422 20.125 28.6343 20.2874 28.9235 20.5765C29.2126 20.8657 29.375 21.2578 29.375 21.6667V27.8333C29.375 28.2422 29.2126 28.6343 28.9235 28.9235C28.6343 29.2126 28.2422 29.375 27.8333 29.375H21.6667C21.2578 29.375 20.8657 29.2126 20.5765 28.9235C20.2874 28.6343 20.125 28.2422 20.125 27.8333V21.6667Z" stroke="white" stroke-width="2.5" stroke-linecap="round" stroke-linejoin="round"/>
</svg>
