<svg width="360" height="578" viewBox="0 0 360 578" fill="none" xmlns="http://www.w3.org/2000/svg">
<g filter="url(#filter0_d_2550_30744)">
<path fill-rule="evenodd" clip-rule="evenodd" d="M343 541H17V22H26.4505C26.4505 22.0012 26.4504 22.0024 26.4504 22.0036C26.4504 27.5158 30.258 31.9844 34.9548 31.9844C39.6516 31.9844 43.4591 27.5158 43.4591 22.0036C43.4591 22.0024 43.4591 22.0012 43.4591 22H51.0172V22.0036C51.0172 27.5158 54.8247 31.9844 59.5215 31.9844C64.2183 31.9844 68.0259 27.5158 68.0259 22.0036V22H75.5849V22.0036C75.5849 27.5158 79.3924 31.9844 84.0892 31.9844C88.786 31.9844 92.5936 27.5158 92.5936 22.0036V22H100.154V22.0036C100.154 27.5158 103.961 31.9844 108.658 31.9844C113.355 31.9844 117.162 27.5158 117.162 22.0036V22H124.721V22.0036C124.721 27.5158 128.529 31.9844 133.226 31.9844C137.922 31.9844 141.73 27.5158 141.73 22.0036V22H149.29V22.0036C149.29 27.5158 153.097 31.9844 157.794 31.9844C162.491 31.9844 166.299 27.5158 166.299 22.0036V22H173.858V22.0036C173.858 27.5158 177.665 31.9844 182.362 31.9844C187.059 31.9844 190.866 27.5158 190.866 22.0036V22H198.426V22.0036C198.426 27.5158 202.234 31.9844 206.931 31.9844C211.627 31.9844 215.435 27.5158 215.435 22.0036V22H222.995V22.0036C222.995 27.5158 226.802 31.9844 231.499 31.9844C236.196 31.9844 240.004 27.5158 240.004 22.0036V22H247.562V22.0036C247.562 27.5158 251.369 31.9844 256.066 31.9844C260.763 31.9844 264.57 27.5158 264.57 22.0036V22H272.13V22.0036C272.13 27.5158 275.938 31.9844 280.635 31.9844C285.331 31.9844 289.139 27.5158 289.139 22.0036V22H296.698V22.0036C296.698 27.5158 300.506 31.9844 305.202 31.9844C309.899 31.9844 313.707 27.5158 313.707 22.0036V22H321.266V22.0036C321.266 27.5158 325.073 31.9844 329.77 31.9844C334.467 31.9844 338.274 27.5158 338.274 22.0036V22H343V541Z" fill="white"/>
</g>
<defs>
<filter id="filter0_d_2550_30744" x="-12.1085" y="0.168607" width="384.217" height="577.217" filterUnits="userSpaceOnUse" color-interpolation-filters="sRGB">
<feFlood flood-opacity="0" result="BackgroundImageFix"/>
<feColorMatrix in="SourceAlpha" type="matrix" values="0 0 0 0 0 0 0 0 0 0 0 0 0 0 0 0 0 0 127 0" result="hardAlpha"/>
<feOffset dy="7.27713"/>
<feGaussianBlur stdDeviation="14.5543"/>
<feComposite in2="hardAlpha" operator="out"/>
<feColorMatrix type="matrix" values="0 0 0 0 0 0 0 0 0 0 0 0 0 0 0 0 0 0 0.16 0"/>
<feBlend mode="normal" in2="BackgroundImageFix" result="effect1_dropShadow_2550_30744"/>
<feBlend mode="normal" in="SourceGraphic" in2="effect1_dropShadow_2550_30744" result="shape"/>
</filter>
</defs>
</svg>
