<svg width="32" height="22" viewBox="0 0 32 22" fill="none" xmlns="http://www.w3.org/2000/svg">
<path d="M11.429 8.20936C11.0249 8.20936 10.6373 8.36991 10.3515 8.6557C10.0657 8.94148 9.90513 9.32909 9.90513 9.73326V12.7811C9.90513 13.1852 10.0657 13.5728 10.3515 13.8586C10.6373 14.1444 11.0249 14.305 11.429 14.305C11.8332 14.305 12.2208 14.1444 12.5066 13.8586C12.7924 13.5728 12.9529 13.1852 12.9529 12.7811V9.73326C12.9529 9.32909 12.7924 8.94148 12.5066 8.6557C12.2208 8.36991 11.8332 8.20936 11.429 8.20936ZM29.7159 9.73326C30.12 9.73326 30.5076 9.57271 30.7934 9.28692C31.0792 9.00113 31.2398 8.61352 31.2398 8.20936V2.11375C31.2398 1.70958 31.0792 1.32197 30.7934 1.03618C30.5076 0.750398 30.12 0.589844 29.7159 0.589844H2.28562C1.88146 0.589844 1.49385 0.750398 1.20806 1.03618C0.922272 1.32197 0.761719 1.70958 0.761719 2.11375V8.20936C0.761719 8.61352 0.922272 9.00113 1.20806 9.28692C1.49385 9.57271 1.88146 9.73326 2.28562 9.73326C2.68979 9.73326 3.0774 9.89381 3.36318 10.1796C3.64897 10.4654 3.80952 10.853 3.80952 11.2572C3.80952 11.6613 3.64897 12.0489 3.36318 12.3347C3.0774 12.6205 2.68979 12.7811 2.28562 12.7811C1.88146 12.7811 1.49385 12.9416 1.20806 13.2274C0.922272 13.5132 0.761719 13.9008 0.761719 14.305V20.4006C0.761719 20.8047 0.922272 21.1924 1.20806 21.4781C1.49385 21.7639 1.88146 21.9245 2.28562 21.9245H29.7159C30.12 21.9245 30.5076 21.7639 30.7934 21.4781C31.0792 21.1924 31.2398 20.8047 31.2398 20.4006V14.305C31.2398 13.9008 31.0792 13.5132 30.7934 13.2274C30.5076 12.9416 30.12 12.7811 29.7159 12.7811C29.3117 12.7811 28.9241 12.6205 28.6383 12.3347C28.3525 12.0489 28.192 11.6613 28.192 11.2572C28.192 10.853 28.3525 10.4654 28.6383 10.1796C28.9241 9.89381 29.3117 9.73326 29.7159 9.73326ZM28.192 6.95976C27.3094 7.28009 26.5469 7.86439 26.008 8.63325C25.4691 9.40212 25.18 10.3183 25.18 11.2572C25.18 12.1961 25.4691 13.1122 26.008 13.8811C26.5469 14.6499 27.3094 15.2342 28.192 15.5546V18.8767H12.9529C12.9529 18.4725 12.7924 18.0849 12.5066 17.7991C12.2208 17.5133 11.8332 17.3528 11.429 17.3528C11.0249 17.3528 10.6373 17.5133 10.3515 17.7991C10.0657 18.0849 9.90513 18.4725 9.90513 18.8767H3.80952V15.5546C4.6921 15.2342 5.45464 14.6499 5.99352 13.8811C6.5324 13.1122 6.82148 12.1961 6.82148 11.2572C6.82148 10.3183 6.5324 9.40212 5.99352 8.63325C5.45464 7.86439 4.6921 7.28009 3.80952 6.95976V3.63765H9.90513C9.90513 4.04181 10.0657 4.42942 10.3515 4.71521C10.6373 5.001 11.0249 5.16155 11.429 5.16155C11.8332 5.16155 12.2208 5.001 12.5066 4.71521C12.7924 4.42942 12.9529 4.04181 12.9529 3.63765H28.192V6.95976Z" fill="white"/>
</svg>
