<svg width="360" height="182" viewBox="0 0 360 182" fill="none" xmlns="http://www.w3.org/2000/svg">
<path d="M0 26H360V127C360 127 309.5 105.5 273 108.5C236.5 111.5 180 152.217 180 152.217C180 152.217 139 181.5 85.5 181.5C32 181.5 0 152.217 0 152.217V26Z" fill="#FCC410"/>
<path d="M0 0H360V126.217C360 126.217 315 101 270 101C225 101 183 130 183 130C183 130 131 159 88.5 159C35 159 0 126.217 0 126.217V0Z" fill="#0E61AC"/>
<path d="M0 0H360V124.5C360 124.5 313.5 94 268.5 94C223.5 94 180 112.101 180 112.101C180 112.101 130.5 132 88 132C34.5 132 0 98 0 98V0Z" fill="#044381"/>
</svg>
